/* XPM */
static char *_8c8f8c83a344c7ad8a1f47ca22a6559PMXaVQzx2VbHl74l[] = {
/* columns rows colors chars-per-pixel */
"58 58 128 2 ",
"   c #0031FC",
".  c #003CFC",
"X  c #0043FC",
"o  c #0B45FC",
"O  c #014BFD",
"+  c #0E4BFC",
"@  c #114DFC",
"#  c #0054FE",
"$  c #0C53FD",
"%  c #015BFE",
"&  c #0C5BFE",
"*  c #1254FD",
"=  c #1953FC",
"-  c #145CFE",
";  c #1A5BFD",
":  c #225DFC",
">  c #315EFC",
",  c #0163FE",
"<  c #0C63FE",
"1  c #006CFF",
"2  c #0C6BFF",
"3  c #1662FE",
"4  c #1965FE",
"5  c #156BFE",
"6  c #1B6CFE",
"7  c #0373FF",
"8  c #0F70FE",
"9  c #077DFF",
"0  c #0B7DFF",
"q  c #1474FF",
"w  c #1D73FE",
"e  c #137CFF",
"r  c #1D7BFF",
"t  c #2262FD",
"y  c #2B64FC",
"u  c #236BFE",
"i  c #2B6EFE",
"p  c #326EFD",
"a  c #2175FF",
"s  c #2D75FE",
"d  c #237CFF",
"f  c #2B7CFE",
"g  c #3376FE",
"h  c #3B75FD",
"j  c #337CFE",
"k  c #3B7CFE",
"l  c #4072FC",
"z  c #487BFD",
"x  c #1582FF",
"c  c #1A82FF",
"v  c #1588FE",
"b  c #1C8DFE",
"n  c #2582FF",
"m  c #2A84FF",
"M  c #268AFF",
"N  c #2B8CFF",
"B  c #3283FE",
"V  c #3B84FE",
"C  c #338CFF",
"Z  c #3B8CFE",
"A  c #2694FF",
"S  c #2C93FF",
"D  c #269BFF",
"F  c #2E9BFF",
"G  c #3393FF",
"H  c #3B93FF",
"J  c #339DFF",
"K  c #3B9BFF",
"L  c #2FA2FF",
"P  c #2DA8FE",
"I  c #33A3FF",
"U  c #3BA3FF",
"Y  c #35ABFF",
"T  c #3BAAFF",
"R  c #37B5FF",
"E  c #3BB3FF",
"W  c #3BBAFF",
"Q  c #4385FE",
"!  c #4E80FD",
"~  c #438DFE",
"^  c #4B8CFE",
"/  c #578DFE",
"(  c #4394FF",
")  c #4C94FE",
"_  c #449BFF",
"`  c #4B9CFF",
"'  c #5394FF",
"]  c #5E97FF",
"[  c #529CFF",
"{  c #5A9CFE",
"}  c #6091FE",
"|  c #629CFE",
" . c #689BFE",
".. c #43A3FF",
"X. c #4CA3FF",
"o. c #42ABFF",
"O. c #4BA9FF",
"+. c #53A3FF",
"@. c #5BA4FF",
"#. c #55AAFF",
"$. c #5BABFF",
"%. c #43B3FF",
"&. c #43BAFF",
"*. c #4DBBFF",
"=. c #52B5FF",
"-. c #5EB2FF",
";. c #54BCFF",
":. c #64A6FF",
">. c #6AA5FF",
",. c #64ABFF",
"<. c #6BACFF",
"1. c #70A2FE",
"2. c #71ACFF",
"3. c #7AADFF",
"4. c #63B3FF",
"5. c #6BB3FF",
"6. c #61BEFF",
"7. c #6ABAFF",
"8. c #72B2FF",
"9. c #7CB4FF",
"0. c #72BBFF",
"q. c #7BBDFF",
"w. c #56C4FF",
"e. c #64C4FF",
"r. c #6AC2FF",
"t. c #77C1FF",
"y. c #84BDFF",
"u. c #82C1FF",
/* pixels */
"+ @ * 3 4 n M M F S E G J J J K H N +.` n M m f f n m m m G _ r n f d w 4 3 6 ~ K +.V Z s $ * * - - 3 4 6 w w a o @ ",
"+ @ * 3 r n n S S S T J J U U K C m ( { n C m N m m m m N U a a m f 6 6 3 - - % 6 ` t.$.u & - - - - & 3 5 w n w o @ ",
"+ @ * 4 c n n S F S T T T I T K Z m a H N d m m m m C C X.d 4 w d d a 6 3 3 ; ; * O w ,.=.n 6 3 # % Z $._ r n 6 o @ ",
"+ @ * 4 d d M S S S &.T T T T J G N n d [ ( 2 a a m m _ ^ < 6 6 w a a 6 4 3 3 - @ = X 3 C S J J #.4...n _ ..H - + @ ",
"+ + * w n n M M M O.*.Y T Y K J C N m d V <.( 4 6 n M _ 3 4 4 6 w w a w 4 4 3 - @ + + k - 3 r C _ C 6 r r N ( @ @ @ ",
"+ + * a n n M M ) r.Y I J G N N m m f d r 1 k B 6 a ( f 4 3 5 6 6 w 6 6 6 6 3 * * X k p # 4 6 w 8 r d n r C B O @ + ",
"+ + - w d n M d $.;.F G m m m m m f a a a a < q ( 5.( q 4 3 3 4 6 6 6 6 6 3 - * X y h O = * - w n d N M d B u + @ + ",
"+ @ - 6 r a n r t.o.F N m n d w a a r w w a a 4 ( _ Z a & - 3 4 6 6 4 3 3 - - X : Q . @ * - 3 w n N S D n n 3 + @ + ",
"@ + - 4 6 5 2 ` 6.m m N f a w w w a w a w 6 w 6 K N C ( k 4 * 4 5 6 3 - * @ + ; g g h O ; 4 6 d n A A N n n 4 @ @ + ",
"o + $ & % j @.) _ N w d a 6 6 a a a d a 6 w 6 6 G N r 3 s V s 5 3 & O o + = 4 u @ . Q k , d w d n n n d d n B O + + ",
"= = t j ) / g , Z Z 5 w w w 6 w 6 a w w a w 3 M M n a 6 5 4 a j k g p i s a 4 + @ - # ] N w 6 w r a w 6 r w C V t ; ",
"Z ( X.k y O # 6 < V u 3 6 6 w w a r r r 5 a U F f n w w w 4 - 3 u u i ) & - @ = - ; # V @., 6 6 w 6 w 6 6 w a H ` _ ",
"< H u   X * * - $ : k 3 6 6 6 w w a r a _ ;.I r n d a r 6 6 6 3 # & { k % 3 ; 3 - - 3 , 5.g & 4 6 4 3 3 6 6 w q r n ",
"d +.= @ @ * * $ * X i a 3 w w w d w S T J n Z r r n d a r 6 < u j [ k % 3 - - * - 3 ; O ~ ) X 3 - * + @ * - 6 a r M ",
"M @.X @ @ @ * * @ @ + d f q d r e T T d r r ` $.M r e r q f ( +.V 3 % ; - * * - 3 4 - * 4 +.@ - - @ + @ @ @ 3 6 r d ",
"6  .@ @ @ * * * + + - 3 H C x Z -._ r d M n r ` @.#.( B ( ` f u % 3 4 3 - @ $ - 4 4 - @ X H u $ - @ + + + @ @ 3 6 6 ",
"% ] l X * * - @ + + ; 5 N ` H 8.Q 2 a a r a d q r m B ` _ 4 3 5 4 - - - - - 4 4 4 4 - * X B s . + @ @ = + + + * 3 4 ",
"< k } X - - * @ + * 3 d e _ 4.d 1 6 6 r a r w a a 5 6 V & 3 4 3 3 3 - 3 3 4 4 6 w 6 3 * . B m - ; + . o @ + + @ @ - ",
"a 2 ^ y O = $ * * ; 6 r V q.w 5 a 6 6 4 6 6 6 4 4 < j V % 4 4 3 - - - 4 6 w w a a 5 - + $ I I J J S m * X = + @ + - ",
"w 6 a ~ $ - - - 3 4 u 1 y.' , s r w 6 4 4 4 3 - ; # ^ k & 6 6 6 4 4 4 r d f n c d 4 $ ; %.M 6 4 3 6 N q.l   = * - w ",
"3 6 3 Z u & 3 3 2 w w B :., 6 6 r a a a w 6 4 3 4 # | s 5 d n r a 6 d n N M N M n 4 # +.+., - - - - O Q u.h . + ; 3 ",
"* - 3 N f # 6 g B f r N c 4 6 6 a d n n r f r w 4 6 @.m c n r w r n M G A A b c w 4 q w.f & 4 - ; - ; O f e.[ = . O ",
"; % w G +.s ^ / / ] ) H d 4 6 4 w d n n n M M n n d 5.C r 4 ; 4 r m m m ` @.@.V 6 % ( O.< 4 - 3 3 3 - - & P o.<.] p ",
"<.3.>.{ ' s 3 # O + p ) H 6 3 3 3 6 a n n n n n M r 5.m 3 $ 3 r m G I 4.q.2.2.:.( Z 5.) % 3 3 3 3 3 - - + F F d _ X.",
"f f a 5 , - 3 6 4 - O O g K 6 - 3 - 6 r n n d d n r :.a - s V Z 4.=.F M r 0 0 c n C 5.+.% 6 6 4 4 4 4 3 * M I n n r ",
"r w 6 6 w 6 4 4 3 3 ; - O u m $ - - - 4 r n d d a q { j s j 4 4 n 6 $ d n m N M M x ~ t.1 r 6 w w w w 6 * I I m N M ",
"d w 6 6 6 6 6 6 4 3 3 3 ; $ 4 s X - - - 6 d d r a 5 +.h O 3 3 5 Z 6 3 3 6 a d S S S c 5.[ 1 d a d d w r a o.N N M n ",
"w w 3 3 6 6 w w w 6 3 3 3 ; $ s ^ O o - - 4 w a w r ~ @ & 4 4 5 B ^ # 3 6 w a S S M A M y.V r M N A N r K I M A M n ",
"a 6 4 - 4 6 6 a w r 6 3 4 3 3 # ~ :.- X ; 3 u w w d a @ 3 6 6 a q ) : o 3 4 w d M M N c ' <.v F F L L L T %.N F S M ",
"d w r 4 3 6 6 6 w f f w 6 6 ; $ d 7.7.B # # , w f m - 3 6 w a w w n V X * - 4 6 a m M N e <.K S P R Y Y I W F S S S ",
"M a r 4 - 4 4 4 6 f f 6 5 & - S X.H _ 7.5.` ` _ S d 6 6 6 w 6 3 6 5 Z s . @ - u a a m B e :.@.b F I Y I F Y I S L S ",
"S n a 6 3 3 5 6 w n w w f K %.U n C C m ,.7.-.G d 6 4 3 4 3 3 3 6 6 5 C j = # 1 r a f m n ' ,.b G J S S S L R S F F ",
"S M d r 4 4 4 r a a _ ;.*.o.S f m H C 5 , B X.c a 4 ; 3 3 - - - - 4 6 a G H ` ) C a w 7 7 B <.b S w 6 w r H %.S F L ",
"S M f r w 6 6 a f 6.w.G d a n n n U a 4 6 < ) [ e 6 3 - * - * - - 3 6 w a m #.$.` _ 2.y.8.9.4.b w 6 4 6 , ) *.D L L ",
"F M n r r r a r X.;.q r n n n d n G 4 6 6 6 r ` m 5 4 4 4 - - 3 4 4 6 6 r H _ 1 3 a Z [ 8.<.d 4 6 6 6 4 4 n E F F F ",
"I M n r a r a m %.N r f f n a a M S 4 6 a r d C B 6 4 4 4 3 3 4 4 4 4 6 d _ Z 5 4 4 r e 9 x 6 w 6 6 3 6 6 n %.J F I ",
"J S n n r r r G T d r f d d d w N S - 6 w w d m C 6 4 w 6 5 4 4 5 4 4 5 C ` w 4 4 w a d C C 4 6 6 5 6 6 6 w U =.S A ",
"L F n n a w w U ..r d r r w w w I d 3 6 r d d d m w 4 r 6 w w 6 6 4 4 3 _ m 3 ; w a d r H V < 4 ; 3 3 6 w w r X.;.%.",
"w.R A a a 6 w %.G w w 6 6 4 6 w F 6 4 w d d n n m m - 6 r a 6 6 4 4 5 B ~ # - 6 w r r K B + @ + @ * - 3 4 6 w q V #.",
"d U E M 5 6 n %.6 - - - 3 6 6 a N - 6 r d n m S M Z i * 6 6 6 6 6 w w ..4 @ - w a r C ~ # @ + @ + + @ @ - 3 6 d r q ",
"n r r U S w J K O * - 3 4 6 6 d n - 6 d d n m m m S m - 3 6 w 6 w < ) B # 3 6 d n n G 4 * * + + + @ + @ @ @ $ 5 w w ",
"Y m n n F M O.d & 3 - ; 3 w a m n 4 d d d M M d M S N 4 - 6 6 6 < Z ,.# 6 w r n M M C ; - * + + + @ @ o X & u j C G ",
"S M M M N F X.4 4 6 4 6 d m d S d w d d d a w a d N S n - - 3 6 2 ,.k # 4 5 w n N n G = * * * + @ + X 6 Z :.,.@...F ",
"w n d n M F L Z d m m m m C m G w w w w 6 6 6 w w M F f 6 3 - < B X.% s Z C C c M M S ; * - * - @ ; Z N B u - # # - ",
"* 6 w d n n M U [ m N C C n ( ,.8 w 6 6 4 6 4 - w P I 3 - w H s M n 4 u B B ' :.Z 0 _ h O - - 3 O H O.5 3 $ @ = @ * ",
"@ * 4 6 w n d b U ( m C C n ` <.q 6 4 - * @ o 6 S W F - 3 ; a n a 3 4 - # $ , j [ V ( ^ O ; 3 - & &.m 6 - * * @ @ @ ",
"+ + + - 3 6 d n D $.( C C m _ _ d s 6 6 6 6 n L F W S - 3 3 $ 5 G d w 6 4 3 u 5 2 Z ` @.~ $ - - w W w 6 * + + + + $ ",
"- - * * * - w m M U +.C C C +.` r f m m N F F F A Y S - 6 4 4 3 Z ( q 6 4 3 4 6 d _ ) ~ ` ( u O N T 3 w - @ + * @ ; ",
"- - ; 3 4 5 r n M S G Z C C X.Z r m m m N S N m d I L 3 w 6 6 w m $.d w 3 3 4 * f u X X # f X.m K N < 4 5 - 3 3 3 3 ",
"4 4 6 6 w w d d M N C G C H ` m f f m m n n d d a I F w d d w r n 4.M w 4 6 $ ; B % ; - = O 6 N o._ Z f f a 4 # - ; ",
"$ ; 4 6 6 6 w d n n d C C ( @.c n f d d a 6 6 a s E G a n d r d r $.C 6 3 % 6 ~ f 3 3 3 - 3 3 6 N Z ( K C N U Z $ O ",
"= X @ - ; 3 6 r r w w a c @.{ r f r w 6 6 6 6 3 d %.d d f r w d r #.V , s ~ $.B 4 w 6 3 3 3 6 n 6 O O 3 6 6 d _ ) l ",
"1.! # o X $ * 3 5 6 6 f m C C s 6 6 6 6 3 4 3 3 _ +.X.m q w a d e _ 5.4.$.( m r f n n w 6 a S 4 + + * 3 4 6 6 5 d ) ",
"; y 3 g h : @ O $ 3 4 d 5.H r 6 - 3 3 - * - w X...m Z _ Z B w w ` $.( H c n S S S M M n d S 3 o @ = - ; 4 3 4 6 w k ",
"+ X o ; j Z ^ V j a w w ( 0.H , 3 4 3 3 - f K _ a w 5 4 Q { ( ` +.a r n M S F J S S m r @.f X @ - - - 3 3 3 6 5 / > ",
"@ @ @ $ & 3 6 f B m d G S H $.X.6 < 4 4 N X.C w w 6 5 4 < % m H r r m m N F F L F S m m | $ * * @ - 3 3 3 4 5 f z X ",
"+ @ @ ; 3 4 r n n d S I C N G #.+.Z m ` X.Z f a 6 4 4 6 a d G G n r n m n S F I F N m B ~ O * + * - 3 3 3 6 6 m ; o ",
"+ + $ - ; r N S F M E J G J K G H +.0.$.m N d w w w a d f n K m r f f m n n G J S m f m a $ @ * - - 3 3 6 w 6 d * o "
};
