/* XPM */
static char *_77d70d36c4c4128b720eaf8fa7e7f09RIv8YXD4SVyfPeTd[] = {
/* columns rows colors chars-per-pixel */
"50 50 122 2 ",
"   c #898788",
".  c #8D8D8B",
"X  c #91908E",
"o  c #918F90",
"O  c #959494",
"+  c #989796",
"@  c #9A9997",
"#  c #999798",
"$  c #9D9C9C",
"%  c #A09E9E",
"&  c #A2A19E",
"*  c #A19FA0",
"=  c #A5A3A3",
"-  c #A8A6A6",
";  c #AAA9A7",
":  c #A9A7A8",
">  c #ADABAB",
",  c #B0AEAE",
"<  c #B2B1AF",
"1  c #B1AFB0",
"2  c #B4B3B3",
"3  c #B8B6B6",
"4  c #BAB9B7",
"5  c #B9B7B8",
"6  c #BCBBBB",
"7  c #C0BEBE",
"8  c #C2C1BF",
"9  c #C1BFC0",
"0  c #C6C5C3",
"q  c #C5C4C2",
"w  c #C2C2C4",
"e  c #C3C3C5",
"r  c #C5C3C4",
"t  c gray77",
"y  c #C5C5C5",
"u  c #C6C4C5",
"i  c #C7C6C4",
"p  c #C4C4C6",
"a  c #C5C5C7",
"s  c #C7C5C6",
"d  c #C6C6C6",
"f  c gray78",
"g  c #C4C3C3",
"h  c #C8C7C5",
"j  c #C8C6C7",
"k  c #C8C7C6",
"l  c #C9C8C6",
"z  c #CAC9C7",
"x  c #CAC9C7",
"c  c #C7C7C9",
"v  c #C9C7C8",
"b  c #C9C7C8",
"n  c #C8C8C8",
"m  c gray79",
"M  c #CAC8C9",
"N  c #CBCAC8",
"B  c #C9C9CB",
"V  c #CBC9CA",
"C  c #CAC8CB",
"Z  c #CACACA",
"A  c #CBCBCB",
"S  c #CCCBC9",
"D  c #CCCACB",
"F  c #CDCCCA",
"G  c #CECDCB",
"H  c #CDCBCC",
"J  c gray80",
"K  c #CDCDCD",
"L  c #CECCCD",
"P  c #CFCECC",
"I  c #CFCDCE",
"U  c #CECCCF",
"Y  c #CECECE",
"T  c gray81",
"R  c #CCCBCB",
"E  c #D0CFCD",
"W  c #D0CECF",
"Q  c #D0CECF",
"!  c #D1D0CE",
"~  c #D2D1CF",
"^  c #D2D1CF",
"/  c #D1CFD0",
"(  c #D0CED1",
")  c #D1CFD0",
"_  c #D0D0D0",
"`  c gray82",
"'  c #D2D0D1",
"]  c #D3D2D0",
"[  c #D0D1D3",
"{  c #D3D1D2",
"}  c #D2D2D2",
"|  c LightGray",
" . c #D4D0D1",
".. c #D4D3D1",
"X. c #D4D2D3",
"o. c #D5D4D2",
"O. c #D6D5D3",
"+. c #D1D2D4",
"@. c #D5D3D4",
"#. c #D4D2D5",
"$. c gray83",
"%. c #D5D5D5",
"&. c #D6D4D5",
"*. c #D7D6D4",
"=. c #D7D5D6",
"-. c gray84",
";. c #D7D7D7",
":. c #D3D2D2",
">. c #D8D7D5",
",. c #D8D6D7",
"<. c #D8D6D7",
"1. c #D9D8D6",
"2. c #DAD9D7",
"3. c #D9D7D8",
"4. c #D9D7D8",
"5. c #D8D8D8",
"6. c #DAD8D9",
"7. c #DCDADB",
"8. c #DEDDDB",
"9. c #DFDDDE",
"0. c #DBDBDB",
"q. c #E2E0E1",
/* pixels */
"2 l 4 > < 4 8 < < & @ X . @ & < 4 ; = < > = 5 6 5 6 8 f J B B T P & @ & , 4 4 ; & & 7 G 8 8 8 8 8 N ",
"8 i 1.O.> = 4 < ; < < & & < 4 8 4 4 4 i w 7 ` %.J Y | $.B 4 2 2 7 & & , & & ; < , , < 7 7 8 o.2.~ F ",
"7 G G i < & - - & < 2 ; & & ; & 2 4 6 6 3 3 v H c B B A w 4 2 4 4 & % ; ; & & & & & & & & & 4 8 8 w ",
"4 G 8 < 4 8 8 8 & < < ; < < < ; > 2 4 2 2 5 9 9 B p A } +.T T } ~ 7 ; < 7 7 7 < 4 7 8 8 8 8 4 < 4 8 ",
"S N O.8 @ & - @ & < ; ; 4 8 8 8 -.Y 7 1 2 r V Q v V ( &.T w 8 9 E 8 8 N b b I  .G 8 8 8.8.! 8 < 6 i ",
". X ; 2 ; ; , 4 < > ; 4 8 8 N 8 p B { { 3.Q > # 2 5 6 5 , - < 6  .E  .O.F 7 7 7 1.8 7 8 8 8 < < : = ",
"& > < < 8 8 ; 4 8 8 8 E ~ N N ~ T 9 2 : 2 5 : * : : : : - - < 9 3 < 7 8  . .U 9 ] ! 8 , ; < < < < ; ",
", & ; - & 4 4 < 8 4 4 N E 8 8 ..` t 6 2 5 3 % % = % * : > : $ $ ; & & 7 7 7 9 9 8 ] 8 ; & ; ; @ ; ; ",
"& & < & & 4 4 4 4 ; 2 8 8 8 8 E -.[ J K +.A 2 & : 6 6 6 > 2 < 6 9 9 9 9 > 1 9 9 U 9 7 1 7 9 7 > < < ",
"< < 8 8 8 N 8 8 < 2 8 N N E O.E [ m w w d B c c =.H 6 K ` ` B %.9.( 9 9 5 9 9 9 9 9 9 : * > * : - - ",
"8 N P P *.N ; & , 4 8 4 ; ; 8 8 _ J m J B w w 8 c A 6 6 6 J 5 > : * # # * * 1 1 7 1 2 * * 2 3 3 7 r ",
"*.8 4 > 4 2 & & 4 & & & ; ; < 4 4 4 8 [ ;.Y w 6 s | w = * 2 2 : 1 1 * * 1 7 5 9 3 7 9 9 9 #. .C M G ",
"G 8 4 < 4 4 & & & & & < ; & & & & & ; 2 w w w a J B w , > = * $ : > * * 1 1 : 3 1 3 9 7 9 9 9 C l V ",
"~ ~ ~ P ~ x ; & & < 8 8 < ; 2 4 w w 6 2 , < 2 6 w w 4 > 6 w 6 > 2 2 : : : * * 3 3 1 2 * 2 9 9 ( s M ",
"~ N G 8 8 N N P 8.G 8 8 E 2.*.N 5.5.[ 6 2 6 p J [ J 6 X $ - 1 $ * : : 1 9 9 9 #.9 9 7 1 9 #.( 9 [ +.",
"< 4 8 8 8 N P N ~ E *...4 & & 2 6 6 > & ; 6 J J 8 w [ 6 w 1 6 w 3 1 3 9 9 1 1 : o # : * 1 5 2 2 5 5 ",
"6 J K f A [ A c 6 < < 6 > * > > & ; ; < < 4 8 4 6 ~ =.K l j M ( ( > * 5 5 : * 1 : * * 9 7 1 2 5 w w ",
"2 f J w w a J [ 3 2 < 4 = O * * & ; & & $ $ & & = 4 w w r r w s U 1 * * * : : * > * : 1 > 5 9 2 w w ",
"< w f w w J [ -.+.[ T +.6 > 2 2 4 4 2 < < 2 8 i 8 4 > > 5 9 s V 7 1 7 L 9 > 1 7 * > 1 : * 1 5 1 2 < ",
"f J Y J Y +.[ B w w w +.B 6 A ` h x h Y ..` ` $.J 8 6 6 j j j V M * o * > * * * 1 > 5 9 9 9 U C 6 2 ",
"O $ ; > 4 w 6 5 2 , , w s 6 M M Y Y K [ 5.K 2 , > > < 2 > - < 8 q.L 5 5 9 9 9 3 9 9 7 5 9 9 5 * > : ",
"& ; 2 4 2 2 2 2 c w 6 m ( r M n _ n 6 4 8 4 $ + 4 , ; , ; ; < 6 1 7 U 7.4.U C 9 C #.9 1 > 5 9 * ; ; ",
"= = > < > 2 4 4 w 6 6 m ) V Q ( n t 4 ; 2 4 & $ & & & ; ; ; & @ > # * 5 9 9 9 9 9  .9 : % * * * > > ",
"< = = = = 2 2 2 < < , w s 7 s L K -.| A +.` 2 = < 2 7 4 ; & < 7 9 9 9 5 > 3 9 9 U 9 7 5 9 9 7 > 2 2 ",
"= 4 w w w [ c 6 2 5 M L ( 4.( ( =.Q 9 9 9 V ( ) ~ P E b Q <.) ) 6.6.9 5 5 9 9 C U [ w $ # > : - ; ; ",
"  O & = > 2 2 > 5 : 2 9 9 9 9 =.V Q )  .#.s , # & ; 5 5 2 , , 7 C U 9 C C 9 9 6 7 a w 1 > 5 1 > @ $ ",
"> 2 6 w f d B J L % # 1 7 9 5 2 3 7 9 M V V 9 3 8 7 7 3 , > 1 V 9 9 5 5 3 : : > > 2 5 1 2 6 < > 2 2 ",
"B B [ [ J w 6 w 9 * : 1 * > 1 > * 3 s D D Q #.) F 8 r S ) v 1 1 5 5 > * * o $ : 2 2 2 2 5 6 2 6 J B ",
"V j M M 6 > = - 1 % % : % * 1 * - : * $ # : 9 ) M 9 9 s #.9 * % * > * > 1 : 1 5 2 2 5 5 6 w 4 w Y [ ",
"6 w H { } } Y ` L * O : 1 1 2 - * - 1 5 5 5 1 : 3 5 7 7 s 7 > 7 6 5 1 1 1 * * * $ * > 1 2 1 - 1 w p ",
"( <.<.Q M M p 6 #.L 9 L M 7 V V #.( ) 6.4.C 9 5 5 9 ( D V 5 $ * 1 2 : * > > 2 6 6 9 U p p a 6 B J J ",
"3 8 w 6 6 M A w 9 ( L L Q L #.9 , 1 5 j s 1 : : 7 s s 9 ( C 1 5 * 5 5 5 1 > 6 a 2 2 2 = $ * = 2 6 6 ",
"r r > # > 5 5 9 5 9 6 9 C L 9 7 & , < 4 < 4 ; & 8 8 N 8 8 7 < 4 < 4 < 2 2 , 4 6 : 2 > = ; < 6 w w 6 ",
"H H 2 * > > > 1 : * > 6 C #.#.( *.*.N 8 N P 8 4 8 8 8 < ; & @ X & > 2 4 2 , 2 2 2 a A w w B B [ K B ",
"= > = # - : * : 1 : : > * * * 2 8 N 7 7 8 ] N 4 X & & % & < & & < 4 2 4 6 6 a w 3 B +.[ K J B B & & ",
"j r 1 % * * - > * * * > 1 > 2 9 , < 7 7 8 N 8 , 4 8 7 , < < > & & & @ & > < 6 < > w w w t m J K J J ",
"H ( s 7 9 ( C Q L 9 9 C =.4.L 7 < 4 8 l i E 7 , & 4 < > , < < > 6 4 2 w w 6 6 1 6 f f w B T [ [ Z J ",
"5 9 6 2 5 5 3 1 9 C 9 9 9 U 9 9 8 4 7 8 i E 9 : & & & & & & & & 6 4 6 B w 2 3 > w m J J T [ K Y f f ",
": 1 : # # * , 5 2 5 5 2 1 * 2 7 7 2 2 4 4 7 7 : 8 7 < , ; & & & > > 2 4 3 6 8 > ; 2 6 8 w w t m Z Z ",
": 7 v v 9 9 j H 9 7 9 9 9 5 > > + . @ ; ; , 5 5 < < , 4 8 8 8 8 K +.K +.[ -.d O & < 4 2 < ; ; < Z [ ",
"6 [ +.Y Y f w B =.9 # : > 1 = - > * : 5 6 6 5 3 6 K s 8 +.+.n [ ] h 4 ; & > < & > ; & & ; ; > 2 ; ; ",
"2 f f y f p w c 9 9 > 6 > $ * 2 2 : * * * : 1 3 5 2 > 2 i f t f F ! z 8 0 S 4 X @ & ; > > ; @ @ > > ",
"2 y f y J f w c L 5 * 6 p 7 2 2 * > 1 5 2 5 6 5 6 1 2 w B f e c z ] O.F z ] F 4 6 8 8 6 6 6 t A Z [ ",
"w J f f J f 8 w 9 2 # # # # * = > 5 9 9 9 9 ( ( 6 6 f Y i 8 J [ ^ x 0 8 4 4 h A f T J d x x A ^ [ [ ",
"4 6 < ; ; @ . . & 2 2 4 5 2 2 > > 5 j 9 9 9 s v K v H 6 & @ ; ; 4 ; & < 4 0 F z h A 0 8 8 8 4 4 2 2 ",
"< 2 > 2 8 w 6 w B +.+.[ 0.-.a O * 1 5 5 5 2 1 1 V H ( ( f f J w 8 8 8 < < 8 8 < < > & X @ ; < < 2 2 ",
"e w 6 d [ Y a J [ B 6 = > > 5 * > > = * : = : 3 2 1 5 j [ [ f 8 8 ] O.6 ; ; 4 < & ; ; & ; < 4 4 4 2 ",
"6 6 2 6 J J a B [ J c 4 w 3 3 O * : * : 1 * % * > * * > 6 6 6 8 8 z G 4 ; & ; & & ; ; ; & ; ; ; 4 4 ",
"2 > < w 6 8 8 f m +.T K J [ m ; > 4 4 4 4 2 < 4 w m 8 6 < > 4 8 A 0 8 6 ; t 8 < < < > ; ; < & ; 6 6 ",
"w w 6 +.J +.[ 0.-.+.K K m m [ t Y +.+.[ +.+.+.-.+.0.+.Y w 4 n J A A A 6 @ ; ; ; ; ; ; ; 8 m 8 ^ Z f "
};
