/* XPM */
static char *_b62901a4f7941278ea938d1a5d5b7d14tkHIhMDmDleD8WM[] = {
/* columns rows colors chars-per-pixel */
"50 50 84 1 ",
"  c #67553F",
". c #695742",
"X c #675947",
"o c #6B5A45",
"O c #6E5D4A",
"+ c #725F47",
"@ c #715F4A",
"# c #6F604D",
"$ c #74634D",
"% c #79664E",
"& c #756552",
"* c #796752",
"= c #776856",
"- c #7B6A55",
"; c #756758",
": c #776958",
"> c #7D6D5A",
", c #7F705E",
"< c #7D6E60",
"1 c #7E7162",
"2 c #826F57",
"3 c #806F5B",
"4 c #82715D",
"5 c #89755D",
"6 c #847463",
"7 c #897764",
"8 c #877867",
"9 c #8B7966",
"0 c #867769",
"q c #86796A",
"w c #8C7C6B",
"e c #917C66",
"r c #907F6D",
"t c #8D7F71",
"y c #92816F",
"u c #8E8172",
"i c #938473",
"p c #998775",
"a c #978877",
"s c #9A8976",
"d c #948679",
"f c #988778",
"g c #96897B",
"h c #9B8B7C",
"j c #9F907F",
"k c #A18B75",
"l c #A08F7E",
"z c #A2907E",
"x c #9C8E81",
"c c #9E9183",
"v c #9F9489",
"b c #A08F80",
"n c #A39384",
"m c #A89686",
"M c #A79887",
"N c #AB9986",
"B c #A49689",
"V c #A89789",
"C c #A6998C",
"Z c #AB9B8D",
"A c #B19C87",
"S c #B09F8F",
"D c #A59A91",
"F c #AC9E91",
"G c #B09F90",
"H c #AFA08F",
"J c #B2A08E",
"K c #AEA193",
"L c #ADA49A",
"P c #B3A394",
"I c #B8A694",
"U c #B9A897",
"Y c #B4A699",
"T c #B9A799",
"R c #B6A99B",
"E c #B9AA9B",
"W c #B7ACA0",
"Q c #BAADA1",
"! c #BDB1A5",
"~ c #C0AB97",
"^ c #C2AD9A",
"/ c #C5B19D",
"( c #C0B0A1",
") c #C2B8AD",
/* pixels */
"CnCDBiwhZZnVxifhhgqignBgvBnnzaiaTPIGTPSGSVmwiBVDCD",
"DZYYKd6aanVZnxnnni4tBBxnBPPYRVqwbffhbbbmNli3hWRPDn",
"xggggt6auippxnfwqtqewwwwiyihhi606336r9336572hnnbnx",
"www6>>63&>,>773436<366>68www4iw66-2>2>=@@%*3e439ii",
"wrw76wwwwiiy6irtr7ippwwrittwwyipww9976rreislkeeei6",
"fnVNnnnnVNZBihFZFGPTGYYGhinCVZYREYPSbfAIIPII~~^/Jp",
"fnnhffrplhhtiaVnbf6thlZnwwifannxfhCVgikrlIJANkAAsi",
"bpwww63ry9ibbVp7wipnSni7iw63wwwt636wrrpryzmlkke5ks",
"i3-2>@>*%@2sfr3rirap60tptq44<;>qr6*66793>*7e5eeeee",
"wwww067rrhfiffxllgw<66wgtiiiwit6rtrffrrirre9prlkpw",
"nGPZZdpGYGYRPZZGVVfnnnVVVnxxnxbpbbbmmbSGGSGbAEGSVV",
"lnmnniihlnbnVnbhg6>nnaphgfphfahthbbVmbbmnVVrrmllmn",
"hirphitrwt76inhiw60piw6>7ww6wwiw9hbbnsprrphsplllnn",
"2-==>t6>-@>>33-&$=63=>$*=2>->-7w7--73--*3>wrr2%%24",
"6>346wt7334976360tiq>&3666wr3w763*27twtiihfbr67967",
"bZYRWRYTGPPNanCCCZZVnnZFbaGZZFVNmmmSGb~TTTTRPITGZh",
"hMnVKYE!!WKZjnZchaxnnVPZhinmVxhnhshsn6rtihlhhlzlq9",
"hz64,6ihanFZnssiw9ppihhiwyaappapphllt79tlpispphsit",
"9>>&O#.O>>wcjsw666467w4wnyw7=@-6wrww29r773%3-475rr",
"966-;&o-$.X8hw8wrw74959ysw$.O$=34763ww7633e3*$@-=e",
"YPBHKgynVnZ!!RPPPZahSZPYYSmlmmhiPYYPZYYYPE!nnzmZGT",
"ZZZFKguZYYYKKKKZVngaNPPTIJPPmnlrhZNPSSPRRITxnIPYPF",
"jhnpgxpNZncnjznjuwialsyiy67779iiphlrrihpi9irpnhhbl",
"w66u61iy866w966wiwiiw>2*4667wiir4**2-43-&-26i4w6wq",
"44>,&;u966ww8wwqwyaq-,477riiw6wi94>27-**-=-366--22",
"hncggCCVnxnBhKZHHHKHnnZHnbPZZBnVnnanh7lnhnnZZZNZni",
"hBCBBDCBCFFBcZHPHZHKPHPEZpVBBZFKZVVZntnGPGPPFSmnnw",
"pvxcgfxBCPngcHZNBnzjjjsjawnVnznznnZnairwirphppr5iw",
"wq6,>w>thgwajpiyiay9iiiiw8psah5-29ykyw74>-294-2776",
"w##:;@O&=18ua7>,,**>>,44a9$$..+*$$$+4994->747w7-%6",
"vBvCBgtBCKFKLMFCCBaCPHKKEEKNnznyzmk9hJSSZVhybbbBnB",
"vBFKCddBncvcBBnBCDhnRREPPLR((EIpnPJSIEIYPZmsGGbBgx",
"wghixguvBgvnxxgxfddinZZJVhzhszh99yyJShznMzEnnh5yqq",
"#6666ihuwhwfgq660>tutwwiswphpsNhsss2225554isyyw-;-",
"ooOoo8w*>>>4=*>>>461-;>>>,>9947iy252%2*%%%%764-#@$",
"gDCBCRYCCCnCfavBvBxguiacahVnhhZIJHAzzwsnnnhMHHVBGt",
"CWW!!WE!!!QYgxxgVCCBBnCCaiYYRPZZmJUUMynIEQQPZYTHZt",
"dvddBgivCFDdwfgxidddgvgjcuZZcBMnNzmnjyhnNVmmzhzafw",
"t>:&=*4:1>0gvnxtw11quuuuuqq1-6aBMji9zipyw66hzpy6=w",
"4->>;>-&*&&6wt36>,1>>>::,1.o*$*=>247>y7-$*>*>@ o$6",
"HiaagdugcnHCHHKvDvgugjdgjguquguqcBVVnBVcnnx6whvhBK",
"RYLKRHaD!WQ)!W!WWKgjKKKKDHCBKKvuFFFBFnnCVVCdjPYERW",
"dDKDvixLuuBBvcxddCvduxvvvcgvvjq1ggggggpudxginVnpdx",
"1qd11qxd,6quuq1uquv11vgqq81q1q81w6<16wu6>wqdhyw6>0",
"=####:1;,1:;:::#&&1uu1:&&#&&==81OO&&*$O$$$4u6--;&&",
"aauuudxuduqq1uuuttdduuquqquuajjciigxg6gchcZPPZMMnw",
"gvvvDLLLLLvxugCvccBvBCBvgdKCBKLKBZKTCwnKDKFFKZFPFx",
"uxcjxvgdvDvduugjxxgxxgcvvdggw6ivnnzihiqdvnncnvffit",
"ddqxdq11qqqvvu1qudu1111uguuvdquuiiwwvw<qwftwrw2->6",
"q1111:::#;&1u1;;;;;:1::&,qu1uuqtutuwttq<;O&$=>>3>6"
};
