/* XPM */
static char *_549a250d0c04230af54852d873ee320by6tok63AmcFBgSL[] = {
/* columns rows colors chars-per-pixel */
"50 50 52 1 ",
"  c #A3844E",
". c #A58652",
"X c #A98754",
"o c #AA8A56",
"O c #AD8D59",
"+ c #B18F5C",
"@ c #AF905B",
"# c #B2925E",
"$ c #B59562",
"% c #B99563",
"& c #B69864",
"* c #BA9A66",
"= c #B69A68",
"- c #BC9D6A",
"; c #BEA16D",
": c #C09D67",
"> c #C19E6B",
", c #C2A26E",
"< c #C8A46F",
"1 c #C5A572",
"2 c #C9A673",
"3 c #C6A974",
"4 c #CAAA76",
"5 c #C6AA78",
"6 c #CDAD7A",
"7 c #D1AD77",
"8 c #D1AE7B",
"9 c #CEB17C",
"0 c #D2B17E",
"q c #D8B57F",
"w c #CFB381",
"e c #D4B482",
"r c #D9B683",
"t c #D6B986",
"y c #DBB986",
"u c #DDBC8A",
"i c #E1BC86",
"p c #E1BD8B",
"a c #DEC18C",
"s c #E3C38E",
"d c #E6C591",
"f c #E9C693",
"g c #E7C893",
"h c #EACA95",
"j c #EDCD99",
"k c #F0CE9C",
"l c #EFD09C",
"z c #F1D19D",
"x c #F4D5A1",
"c c #F6D8A4",
"v c #F9D9A6",
"b c #FCDCA9",
/* pixels */
"59;l$j-62<>5e>t1h%d>2<>>2r:e>k%p<<2>22w-u=j%k2<8:2",
";5;gog*2<<>22=5-h&f1w22w<w%w%f%p<<2<22w=w$f+p<:7>e",
"593l#j>84ew6w>e-p%p22228we:r;k%p7784e5e>t;x$pq27>e",
"39;hof*718866-w-f%p>227w>w%e=j+p<><<81w&t-k+i2<77r",
";5;fXd*8>7865;w;f+p2e22e5w%e-f+p<<72w2w=w=jou5<2wy",
"5w5j#k2p7ree9;t;j%p2reweer,r1k=j8rrerwt=t1x#peqi2r",
";9,h+k2p0e900;9;j%peieew8e-w=f+p8rr7w4t$e=k+fr8i2e",
";91h+k8pr06e0=91h+prir72wr=e-j$f7ri2weu=t-j$jeqp2r",
"w55g#k8peree216;k+pwuru86r%e-j=p8iiqr8w-e=d%k8qier",
"w;5l%h1u8r7ee566k:x2ier6er>e>k-f>qi4r8t,61z%p7qi7r",
"9;5c>h2prp8et5;5v:k7pru8ee>w1j>f7qiqy8e15;b>s7qiep",
"t;5x*j2pwpw8t611k%p<reue8w845j-f78rry5ew5-v:p7qiep",
"a95g@g>4>pw>ryw1j+p>82re68ew1h%h><88e5ttu$j=s<>7ei",
"g95g@l>4>pe>wpt;f%f>82re2euy>h#d><8qr1wtg=f#d2>7wp",
"l9;g@h,87pe2wur-f+f>82ye1epu-zop22wru,wtd=z+i7<qwr",
"l95got@67e7wwyp1pXp:62ye2etu&xXt>>4eu,tuu=coq<<77p",
"sy,sOj>2wrw>wuu>f+f12eee<wep-k.f7,799<tta;los7,77i",
"aq,g+j-2wrewweu>k+k><wwe2wep>xoj<;qq03tta=j@g7,77r",
"qq,gOj%2<rwwwwewf%f>>wer<w2y=lOj<;90q5w5a=j@h7*7rp",
"99,h#j>>>ewwwwwwj%k1>wer<w2r=j+j<;79q99;a=l=k4:q2i",
"9q3l:f>2wewwwww>f%j1w1ww501t;l=l7,77w9w;a=l=l;*qwp",
"37,g%k>2>>>>>ww%j+j111121e-t;j=f4,4<5;w=t=g=gw*0%<",
"33:g+p%<>>w>w%w-j+f11<1>10-t=g#a3,4,;55=w=l@g6*0>w",
"37<l+f>wewwrw>wwj+f-www24e-t;h=g4<0399t;w=c@d5;02r",
"<7,goi3:>e2>w>>>fOu>111e;4-9,g@t<,<39,5;t;h@i>2>1e",
"<93g@s39>e64w>wwf+d1844e46-e;j$s4374045;t=h@p472wr",
",q,g&g3i8e86w-e1h%f6t66eee&t;j$h0qq9t9t;t=h$d8rrwr",
",9,s&g3sw8wew>e>h%j8uee0ee$t&l@j0qy4q9t&t;h#fqii>r",
"37<i&g<geewew;e>f$f6pye09w@a&j@g7yy7www=t;j$priiwr",
"333g&g:aeewwe>w1h$f6tyt060;t;l$g7yi0wwt;w=l=p7ii2p",
"7,7l&l,aeywwu1w1k*h4yyt04t,e;x;g2quew5t;w;x=prrr8i",
"q:7l:g3awu2wu>65v-h5yyy04t593x;g20ute5u;w;c;p7riei",
"93:l@l:iqaqq993;k&j6wrprw862-v%f6erup2w65>k-h5epri",
"a93l@g:339q39at3f+p>15w81ere=j$h-166e1rry>d+p1127i",
"gq<g@g:93qq39aa;j=f>26rr>epp-h+h>268e1ruf2h#f256ei",
"gq<g g:q3ia39gt;f#p-26ye6eup,kou12ery1ery-k+p1<e7i",
"gq3s s@330q39aa;p+u-24e86wer>kXu-18ru2eru-k+y>-e7i",
"aq7g g:39q999at3h$f18wrw6eru>hOf112wr1rrp>x#dw1ewi",
"a93g@l:79qq99t9;d$p>22w86eru>j#j226wr2eep%hOpe>6wr",
"i3:g@l::3ty39tt3d%j111ru666e>k+d1>2ep5w8p=x%p6*6ep",
"79<g#j,<4t0661u1h=k1>5ey1e>u,k%f5>5ey5e>p-j%h5>62p",
"993g&l,<4456e1t5h$k126662t>y,j*j617682e*p>k&h518wp",
"37<s#h;,43;4w-e1h+h1681>68-r-j$h214122e%t-k%d2>w+2",
"333g#h,345,4w=w-j+f126214w*y*j$d226221t%e*j%p21e>e",
"373g+f,6>www2>r1k#f>26662w>y,j$d516682r>e>k#d218>e",
"<73s+d>4>ww25>t;hOd>126e26*e;h#p2>26w1w%y-k+p1>5wu",
"37,s+p>e<wwww-e-fXd1566828%e;h@a528662e%e*h+p5282u",
"373g%p8ieewee>w1k+j8yyee6r*r;l&geyu88eu&r-k$jyeu2p",
",9;g&g3sq79q9;t:g&g7ii7q39:q;l&g8ur8w2u%y&j$derp2p",
"39,g@g7sq77q9:t,g@l3iq3q7q*q;g#g8ir8e6t%t&j%perp2p"
};
